<svg xmlns="http://www.w3.org/2000/svg" width="400" height="400" viewBox="0 0 400 400">
  <defs>
    <symbol id="plus" overflow="visible">
      <rect x="-11" y="-3.5" width="22" height="7" fill="#76CAF1"/>
      <rect x="-3.5" y="-11" width="7" height="22" fill="#76CAF1"/>
    </symbol>
  </defs>
  <g opacity="0.78">
    <use href="#plus" transform="translate(38 46) scale(1.0) rotate(8)"/>
    <use href="#plus" transform="translate(72 28) scale(0.7) rotate(-14)"/>
    <use href="#plus" transform="translate(58 82) scale(1.3) rotate(22)"/>
    <use href="#plus" transform="translate(108 60) scale(0.9) rotate(-6)"/>
    <use href="#plus" transform="translate(146 34) scale(1.1) rotate(18)"/>
    <use href="#plus" transform="translate(182 78) scale(0.8) rotate(-22)"/>
    <use href="#plus" transform="translate(226 44) scale(1.2) rotate(5)"/>
    <use href="#plus" transform="translate(268 72) scale(0.75) rotate(-12)"/>
    <use href="#plus" transform="translate(304 38) scale(1.05) rotate(14)"/>
    <use href="#plus" transform="translate(346 64) scale(0.9) rotate(-8)"/>
    <use href="#plus" transform="translate(372 108) scale(1.2) rotate(20)"/>
    <use href="#plus" transform="translate(26 130) scale(1.15) rotate(-18)"/>
    <use href="#plus" transform="translate(90 140) scale(0.85) rotate(10)"/>
    <use href="#plus" transform="translate(134 118) scale(1.4) rotate(-4)"/>
    <use href="#plus" transform="translate(178 152) scale(0.7) rotate(24)"/>
    <use href="#plus" transform="translate(224 130) scale(1.0) rotate(-16)"/>
    <use href="#plus" transform="translate(262 164) scale(1.25) rotate(6)"/>
    <use href="#plus" transform="translate(312 140) scale(0.8) rotate(-10)"/>
    <use href="#plus" transform="translate(354 178) scale(1.1) rotate(16)"/>
    <use href="#plus" transform="translate(48 210) scale(0.9) rotate(12)"/>
    <use href="#plus" transform="translate(88 238) scale(1.35) rotate(-20)"/>
    <use href="#plus" transform="translate(142 214) scale(0.75) rotate(4)"/>
    <use href="#plus" transform="translate(184 246) scale(1.1) rotate(-14)"/>
    <use href="#plus" transform="translate(232 226) scale(0.95) rotate(18)"/>
    <use href="#plus" transform="translate(278 258) scale(1.2) rotate(-6)"/>
    <use href="#plus" transform="translate(326 224) scale(0.8) rotate(22)"/>
    <use href="#plus" transform="translate(368 256) scale(1.0) rotate(-12)"/>
    <use href="#plus" transform="translate(22 294) scale(1.2) rotate(8)"/>
    <use href="#plus" transform="translate(68 318) scale(0.85) rotate(-18)"/>
    <use href="#plus" transform="translate(118 300) scale(1.0) rotate(14)"/>
    <use href="#plus" transform="translate(164 334) scale(1.3) rotate(-4)"/>
    <use href="#plus" transform="translate(218 310) scale(0.75) rotate(20)"/>
    <use href="#plus" transform="translate(262 348) scale(1.1) rotate(-16)"/>
    <use href="#plus" transform="translate(312 320) scale(0.9) rotate(6)"/>
    <use href="#plus" transform="translate(358 352) scale(1.25) rotate(-10)"/>
    <use href="#plus" transform="translate(44 372) scale(0.8) rotate(16)"/>
    <use href="#plus" transform="translate(198 380) scale(1.0) rotate(-8)"/>
    <use href="#plus" transform="translate(292 378) scale(0.7) rotate(12)"/>
  </g>
</svg>
